<svg width="100" height="100" viewBox="0 0 100 100" fill="none" xmlns="http://www.w3.org/2000/svg">
<path d="M32.336 56H30.512L25.024 47.696V56H23.2V44.864H25.024L30.512 53.152V44.864H32.336V56ZM42.8113 51.376C42.8113 51.7067 42.7899 52.0053 42.7473 52.272H36.0113C36.0646 52.976 36.3259 53.5413 36.7953 53.968C37.2646 54.3947 37.8406 54.608 38.5233 54.608C39.5046 54.608 40.1979 54.1973 40.6033 53.376H42.5712C42.3046 54.1867 41.8193 54.8533 41.1153 55.376C40.4219 55.888 39.5579 56.144 38.5233 56.144C37.6806 56.144 36.9233 55.9573 36.2513 55.584C35.5899 55.2 35.0673 54.6667 34.6833 53.984C34.3099 53.2907 34.1233 52.4907 34.1233 51.584C34.1233 50.6773 34.3046 49.8827 34.6673 49.2C35.0406 48.5067 35.5579 47.9733 36.2193 47.6C36.8913 47.2267 37.6593 47.04 38.5233 47.04C39.3553 47.04 40.0966 47.2213 40.7473 47.584C41.3979 47.9467 41.9046 48.4587 42.2673 49.12C42.6299 49.7707 42.8113 50.5227 42.8113 51.376ZM40.9073 50.8C40.8966 50.128 40.6566 49.5893 40.1873 49.184C39.7179 48.7787 39.1366 48.576 38.4433 48.576C37.8139 48.576 37.2753 48.7787 36.8273 49.184C36.3793 49.5787 36.1126 50.1173 36.0273 50.8H40.9073ZM48.4303 56.144C47.5983 56.144 46.8463 55.9573 46.1743 55.584C45.5023 55.2 44.9743 54.6667 44.5903 53.984C44.2063 53.2907 44.0143 52.4907 44.0143 51.584C44.0143 50.688 44.2116 49.8933 44.6063 49.2C45.0009 48.5067 45.5396 47.9733 46.2223 47.6C46.9049 47.2267 47.6676 47.04 48.5103 47.04C49.3529 47.04 50.1156 47.2267 50.7983 47.6C51.4809 47.9733 52.0196 48.5067 52.4143 49.2C52.8089 49.8933 53.0063 50.688 53.0063 51.584C53.0063 52.48 52.8036 53.2747 52.3983 53.968C51.9929 54.6613 51.4383 55.2 50.7343 55.584C50.0409 55.9573 49.2729 56.144 48.4303 56.144ZM48.4303 54.56C48.8996 54.56 49.3369 54.448 49.7423 54.224C50.1583 54 50.4943 53.664 50.7503 53.216C51.0063 52.768 51.1343 52.224 51.1343 51.584C51.1343 50.944 51.0116 50.4053 50.7663 49.968C50.5209 49.52 50.1956 49.184 49.7903 48.96C49.3849 48.736 48.9476 48.624 48.4783 48.624C48.0089 48.624 47.5716 48.736 47.1663 48.96C46.7716 49.184 46.4569 49.52 46.2223 49.968C45.9876 50.4053 45.8703 50.944 45.8703 51.584C45.8703 52.5333 46.1103 53.2693 46.5903 53.792C47.0809 54.304 47.6943 54.56 48.4303 54.56ZM60.7614 50.288C61.3587 50.3947 61.8654 50.7093 62.2814 51.232C62.6974 51.7547 62.9054 52.3467 62.9054 53.008C62.9054 53.5733 62.756 54.0853 62.4574 54.544C62.1694 54.992 61.748 55.3493 61.1934 55.616C60.6387 55.872 59.9934 56 59.2574 56H54.8094V44.88H59.0494C59.8067 44.88 60.4574 45.008 61.0014 45.264C61.5454 45.52 61.956 45.8667 62.2334 46.304C62.5107 46.7307 62.6494 47.2107 62.6494 47.744C62.6494 48.384 62.4787 48.9173 62.1374 49.344C61.796 49.7707 61.3374 50.0853 60.7614 50.288ZM56.6334 49.552H58.8894C59.4867 49.552 59.9507 49.4187 60.2814 49.152C60.6227 48.8747 60.7934 48.48 60.7934 47.968C60.7934 47.4667 60.6227 47.0773 60.2814 46.8C59.9507 46.512 59.4867 46.368 58.8894 46.368H56.6334V49.552ZM59.0974 54.512C59.716 54.512 60.2014 54.3627 60.5534 54.064C60.9054 53.7653 61.0814 53.3493 61.0814 52.816C61.0814 52.272 60.8947 51.84 60.5214 51.52C60.148 51.2 59.652 51.04 59.0334 51.04H56.6334V54.512H59.0974ZM64.2795 51.552C64.2795 50.6667 64.4608 49.8827 64.8235 49.2C65.1968 48.5173 65.6982 47.9893 66.3275 47.616C66.9675 47.232 67.6715 47.04 68.4395 47.04C69.1328 47.04 69.7355 47.1787 70.2475 47.456C70.7702 47.7227 71.1862 48.0587 71.4955 48.464V47.184H73.3355V56H71.4955V54.688C71.1862 55.104 70.7648 55.4507 70.2315 55.728C69.6982 56.0053 69.0902 56.144 68.4075 56.144C67.6502 56.144 66.9568 55.952 66.3275 55.568C65.6982 55.1733 65.1968 54.6293 64.8235 53.936C64.4608 53.232 64.2795 52.4373 64.2795 51.552ZM71.4955 51.584C71.4955 50.976 71.3675 50.448 71.1115 50C70.8662 49.552 70.5408 49.2107 70.1355 48.976C69.7302 48.7413 69.2928 48.624 68.8235 48.624C68.3542 48.624 67.9168 48.7413 67.5115 48.976C67.1062 49.2 66.7755 49.536 66.5195 49.984C66.2742 50.4213 66.1515 50.944 66.1515 51.552C66.1515 52.16 66.2742 52.6933 66.5195 53.152C66.7755 53.6107 67.1062 53.9627 67.5115 54.208C67.9275 54.4427 68.3648 54.56 68.8235 54.56C69.2928 54.56 69.7302 54.4427 70.1355 54.208C70.5408 53.9733 70.8662 53.632 71.1115 53.184C71.3675 52.7253 71.4955 52.192 71.4955 51.584ZM77.3473 54.512H81.3473V56H75.2353V54.512L79.2513 48.672H75.2353V47.184H81.3473V48.672L77.3473 54.512ZM82.6545 51.552C82.6545 50.6667 82.8358 49.8827 83.1985 49.2C83.5718 48.5173 84.0732 47.9893 84.7025 47.616C85.3425 47.232 86.0465 47.04 86.8145 47.04C87.5078 47.04 88.1105 47.1787 88.6225 47.456C89.1452 47.7227 89.5612 48.0587 89.8705 48.464V47.184H91.7105V56H89.8705V54.688C89.5612 55.104 89.1398 55.4507 88.6065 55.728C88.0732 56.0053 87.4652 56.144 86.7825 56.144C86.0252 56.144 85.3318 55.952 84.7025 55.568C84.0732 55.1733 83.5718 54.6293 83.1985 53.936C82.8358 53.232 82.6545 52.4373 82.6545 51.552ZM89.8705 51.584C89.8705 50.976 89.7425 50.448 89.4865 50C89.2412 49.552 88.9158 49.2107 88.5105 48.976C88.1052 48.7413 87.6678 48.624 87.1985 48.624C86.7292 48.624 86.2918 48.7413 85.8865 48.976C85.4812 49.2 85.1505 49.536 84.8945 49.984C84.6492 50.4213 84.5265 50.944 84.5265 51.552C84.5265 52.16 84.6492 52.6933 84.8945 53.152C85.1505 53.6107 85.4812 53.9627 85.8865 54.208C86.3025 54.4427 86.7398 54.56 87.1985 54.56C87.6678 54.56 88.1052 54.4427 88.5105 54.208C88.9158 53.9733 89.2412 53.632 89.4865 53.184C89.7425 52.7253 89.8705 52.192 89.8705 51.584ZM95.9303 48.464C96.1969 48.016 96.5489 47.6693 96.9863 47.424C97.4343 47.168 97.9623 47.04 98.5703 47.04V48.928H98.1063C97.3916 48.928 96.8476 49.1093 96.4743 49.472C96.1116 49.8347 95.9303 50.464 95.9303 51.36V56H94.1063V47.184H95.9303V48.464Z" fill="#4C5773"/>
<circle cx="8" cy="50" r="8" fill="#02A9DA"/>
<rect width="9.84615" height="1.5866" rx="0.793302" transform="matrix(0.681991 0.731361 -0.681991 0.731361 6.22156 45.2818)" fill="#D9D9D9"/>
<rect width="5.74359" height="1.5866" rx="0.793302" transform="matrix(0.681991 0.731361 -0.681991 0.731361 4.36438 48.9741)" fill="#D9D9D9"/>
</svg>
